<?xml version="1.0" standalone="no"?>
<svg xmlns:xlink="http://www.w3.org/1999/xlink" id="wave" style="transform:rotate(180deg); transition: 0.3s" viewBox="0 0 1440 490" version="1.1" xmlns="http://www.w3.org/2000/svg"><defs><linearGradient id="sw-gradient-0" x1="0" x2="0" y1="1" y2="0"><stop stop-color="rgba(51, 51, 51, 1)" offset="0%"/><stop stop-color="rgba(4, 170, 109, 0)" offset="100%"/></linearGradient></defs><path style="transform:translate(0, 0px); opacity:1" fill="url(#sw-gradient-0)" d="M0,294L30,253.2C60,212,120,131,180,155.2C240,180,300,310,360,334.8C420,359,480,278,540,269.5C600,261,660,327,720,359.3C780,392,840,392,900,334.8C960,278,1020,163,1080,114.3C1140,65,1200,82,1260,98C1320,114,1380,131,1440,147C1500,163,1560,180,1620,204.2C1680,229,1740,261,1800,261.3C1860,261,1920,229,1980,228.7C2040,229,2100,261,2160,269.5C2220,278,2280,261,2340,277.7C2400,294,2460,343,2520,343C2580,343,2640,294,2700,228.7C2760,163,2820,82,2880,89.8C2940,98,3000,196,3060,204.2C3120,212,3180,131,3240,155.2C3300,180,3360,310,3420,343C3480,376,3540,310,3600,261.3C3660,212,3720,180,3780,163.3C3840,147,3900,147,3960,147C4020,147,4080,147,4140,138.8C4200,131,4260,114,4290,106.2L4320,98L4320,490L4290,490C4260,490,4200,490,4140,490C4080,490,4020,490,3960,490C3900,490,3840,490,3780,490C3720,490,3660,490,3600,490C3540,490,3480,490,3420,490C3360,490,3300,490,3240,490C3180,490,3120,490,3060,490C3000,490,2940,490,2880,490C2820,490,2760,490,2700,490C2640,490,2580,490,2520,490C2460,490,2400,490,2340,490C2280,490,2220,490,2160,490C2100,490,2040,490,1980,490C1920,490,1860,490,1800,490C1740,490,1680,490,1620,490C1560,490,1500,490,1440,490C1380,490,1320,490,1260,490C1200,490,1140,490,1080,490C1020,490,960,490,900,490C840,490,780,490,720,490C660,490,600,490,540,490C480,490,420,490,360,490C300,490,240,490,180,490C120,490,60,490,30,490L0,490Z"/></svg>