<?xml version="1.0" standalone="no"?>
<svg xmlns:xlink="http://www.w3.org/1999/xlink" id="wave" style="transform:rotate(0deg); transition: 0.3s" viewBox="0 0 1440 380" version="1.1" xmlns="http://www.w3.org/2000/svg"><defs><linearGradient id="sw-gradient-0" x1="0" x2="0" y1="1" y2="0"><stop stop-color="rgba(51, 51, 51, 1)" offset="0%"/><stop stop-color="rgba(174.269, 217.511, 233.726, 1)" offset="100%"/></linearGradient></defs><path style="transform:translate(0, 0px); opacity:1" fill="url(#sw-gradient-0)" d="M0,0L40,19C80,38,160,76,240,101.3C320,127,400,139,480,177.3C560,215,640,279,720,272.3C800,266,880,190,960,133C1040,76,1120,38,1200,63.3C1280,89,1360,177,1440,183.7C1520,190,1600,114,1680,101.3C1760,89,1840,139,1920,183.7C2000,228,2080,266,2160,240.7C2240,215,2320,127,2400,133C2480,139,2560,241,2640,278.7C2720,317,2800,291,2880,266C2960,241,3040,215,3120,171C3200,127,3280,63,3360,50.7C3440,38,3520,76,3600,76C3680,76,3760,38,3840,38C3920,38,4000,76,4080,133C4160,190,4240,266,4320,253.3C4400,241,4480,139,4560,133C4640,127,4720,215,4800,240.7C4880,266,4960,228,5040,209C5120,190,5200,190,5280,196.3C5360,203,5440,215,5520,234.3C5600,253,5680,279,5720,291.3L5760,304L5760,380L5720,380C5680,380,5600,380,5520,380C5440,380,5360,380,5280,380C5200,380,5120,380,5040,380C4960,380,4880,380,4800,380C4720,380,4640,380,4560,380C4480,380,4400,380,4320,380C4240,380,4160,380,4080,380C4000,380,3920,380,3840,380C3760,380,3680,380,3600,380C3520,380,3440,380,3360,380C3280,380,3200,380,3120,380C3040,380,2960,380,2880,380C2800,380,2720,380,2640,380C2560,380,2480,380,2400,380C2320,380,2240,380,2160,380C2080,380,2000,380,1920,380C1840,380,1760,380,1680,380C1600,380,1520,380,1440,380C1360,380,1280,380,1200,380C1120,380,1040,380,960,380C880,380,800,380,720,380C640,380,560,380,480,380C400,380,320,380,240,380C160,380,80,380,40,380L0,380Z"/></svg>