<?xml version="1.0" standalone="no"?>
<svg xmlns:xlink="http://www.w3.org/1999/xlink" id="wave" style="transform:rotate(0deg); transition: 0.3s" viewBox="0 0 1440 490" version="1.1" xmlns="http://www.w3.org/2000/svg"><defs><linearGradient id="sw-gradient-0" x1="0" x2="0" y1="1" y2="0"><stop stop-color="rgba(51, 51, 51, 1)" offset="0%"/><stop stop-color="rgba(4, 170, 109, 0)" offset="100%"/></linearGradient></defs><path style="transform:translate(0, 0px); opacity:1" fill="url(#sw-gradient-0)" d="M0,392L21.8,375.7C43.6,359,87,327,131,318.5C174.5,310,218,327,262,294C305.5,261,349,180,393,155.2C436.4,131,480,163,524,187.8C567.3,212,611,229,655,245C698.2,261,742,278,785,269.5C829.1,261,873,229,916,204.2C960,180,1004,163,1047,147C1090.9,131,1135,114,1178,89.8C1221.8,65,1265,33,1309,73.5C1352.7,114,1396,229,1440,228.7C1483.6,229,1527,114,1571,122.5C1614.5,131,1658,261,1702,334.8C1745.5,408,1789,425,1833,424.7C1876.4,425,1920,408,1964,375.7C2007.3,343,2051,294,2095,294C2138.2,294,2182,343,2225,334.8C2269.1,327,2313,261,2356,212.3C2400,163,2444,131,2487,106.2C2530.9,82,2575,65,2618,114.3C2661.8,163,2705,278,2749,269.5C2792.7,261,2836,131,2880,122.5C2923.6,114,2967,229,3011,228.7C3054.5,229,3098,114,3120,57.2L3141.8,0L3141.8,490L3120,490C3098.2,490,3055,490,3011,490C2967.3,490,2924,490,2880,490C2836.4,490,2793,490,2749,490C2705.5,490,2662,490,2618,490C2574.5,490,2531,490,2487,490C2443.6,490,2400,490,2356,490C2312.7,490,2269,490,2225,490C2181.8,490,2138,490,2095,490C2050.9,490,2007,490,1964,490C1920,490,1876,490,1833,490C1789.1,490,1745,490,1702,490C1658.2,490,1615,490,1571,490C1527.3,490,1484,490,1440,490C1396.4,490,1353,490,1309,490C1265.5,490,1222,490,1178,490C1134.5,490,1091,490,1047,490C1003.6,490,960,490,916,490C872.7,490,829,490,785,490C741.8,490,698,490,655,490C610.9,490,567,490,524,490C480,490,436,490,393,490C349.1,490,305,490,262,490C218.2,490,175,490,131,490C87.3,490,44,490,22,490L0,490Z"/></svg>