<svg xmlns="http://www.w3.org/2000/svg" xmlns:xlink="http://www.w3.org/1999/xlink" viewBox="0 0 360 523.63"><defs><linearGradient id="a" x1="3.22" y1="180" x2="360.11" y2="180" gradientUnits="userSpaceOnUse"><stop offset="0" stop-color="#ff6e77"/><stop offset="0.31" stop-color="#f0555f"/><stop offset="0.75" stop-color="#df3643"/><stop offset="1" stop-color="#d82b38"/></linearGradient></defs><title>BBM8 Lockupmdpi</title><path d="M163.8,500.18a20.83,20.83,0,0,1-2.45,10.31,21.3,21.3,0,0,1-6.7,7.28,31.55,31.55,0,0,1-9.93,4.38,47.09,47.09,0,0,1-12,1.48H88.15v-91.5h50.91a18,18,0,0,1,8.63,2.07,21.27,21.27,0,0,1,6.57,5.35,24.43,24.43,0,0,1,4.19,7.47,25.46,25.46,0,0,1,1.48,8.57A24.59,24.59,0,0,1,156.64,468a20.68,20.68,0,0,1-9.85,8.76A23.7,23.7,0,0,1,159.22,485Q163.8,490.91,163.8,500.18Zm-54.51-50v18.94H130a9.24,9.24,0,0,0,6.19-2.32c1.8-1.55,2.7-3.95,2.7-7.22q0-4.5-2.38-6.95a7.69,7.69,0,0,0-5.73-2.45Zm33,45.75a11,11,0,0,0-2.45-7.22,7.68,7.68,0,0,0-6.19-3H109.29v20h23.45a9.23,9.23,0,0,0,6.83-2.71A9.58,9.58,0,0,0,142.28,495.93Z" fill="#262522"/><path d="M75.65,500.18a20.83,20.83,0,0,1-2.45,10.31,21.3,21.3,0,0,1-6.7,7.28,31.49,31.49,0,0,1-9.92,4.38,47.23,47.23,0,0,1-12,1.48H0v-91.5H50.91a18,18,0,0,1,8.63,2.07,21.27,21.27,0,0,1,6.57,5.35A24.43,24.43,0,0,1,70.3,447a25.46,25.46,0,0,1,1.48,8.57A24.59,24.59,0,0,1,68.49,468a20.63,20.63,0,0,1-9.85,8.76A23.7,23.7,0,0,1,71.07,485Q75.65,490.91,75.65,500.18Zm-54.51-50v18.94H41.88a9.2,9.2,0,0,0,6.19-2.32c1.8-1.55,2.71-3.95,2.71-7.22q0-4.5-2.39-6.95a7.69,7.69,0,0,0-5.73-2.45Zm33,45.75a11,11,0,0,0-2.45-7.22,7.68,7.68,0,0,0-6.19-3H21.14v20H44.59A9.23,9.23,0,0,0,51.42,503,9.58,9.58,0,0,0,54.13,495.93Z" fill="#262522"/><path d="M248.47,523.63V468.86l-19.85,54.77H217.28l-19.85-54.77v54.77H176.3v-91.5h22.94L223,480l23.84-47.82H269.6v91.5Z" fill="#262522"/><path d="M337.36,523.63c12.24,0,22.64-10,22.64-22.26V491.16A22.16,22.16,0,0,0,337.84,469H313.05a8.29,8.29,0,0,1-7.93-8.27v-2.38a8.3,8.3,0,0,1,8.3-8.29h42.46V432H305.36A21.36,21.36,0,0,0,284,453.36v10.75a21.36,21.36,0,0,0,21.36,21.36h24.17a8.67,8.67,0,0,1,8.66,8.67v2.78a8.66,8.66,0,0,1-8.66,8.66H284v18.05h53.36Z" fill="#262522"/><path d="M240.62,360H87.19A87.19,87.19,0,0,1,0,272.81V0H240.62A119.38,119.38,0,0,1,360,119.38V240.63A119.38,119.38,0,0,1,240.62,360Z" fill="url(#a)"/><path d="M116.38,163.12H85.21a17.7,17.7,0,0,1-17.71-17.7V90h48.88a24.25,24.25,0,0,1,24.24,24.25v24.63A24.24,24.24,0,0,1,116.38,163.12Z" fill="#fff"/><path d="M183.44,303.75H89.64A22.14,22.14,0,0,1,67.5,281.61V212.34H183.44a30.31,30.31,0,0,1,30.31,30.31v30.79A30.31,30.31,0,0,1,183.44,303.75Z" fill="#fff"/></svg>